<svg width="44" height="59" viewBox="0 0 44 59" fill="none" xmlns="http://www.w3.org/2000/svg">
<path fill-rule="evenodd" clip-rule="evenodd" d="M43.5 40.5366V42H41.5V40.5366H43.5ZM43.5 34.6829V37.6098H41.5V34.6829H43.5ZM43.5 28.8293V31.7561H41.5V28.8293H43.5ZM43.5 22.9756V25.9024H41.5V22.9756H43.5ZM43.5 17.1219V20.0488H41.5V17.1219H43.5ZM43.5 11.2683V14.1951H41.5V11.2683H43.5ZM43.5 5.41463V8.34146H41.5V5.41463H43.5ZM43.5 1.02439V2.4878L41.5 2.4878V1.02439H43.5Z" fill="black"/>
<path fill-rule="evenodd" clip-rule="evenodd" d="M2.5 40.5L2.5 42H0.500002L0.500002 40.5H2.5ZM2.5 34.5L2.5 37.5H0.500002L0.500001 34.5H2.5ZM2.5 28.5L2.5 31.5H0.500001L0.500001 28.5H2.5ZM2.5 22.5L2.5 25.5H0.500001L0.500001 22.5H2.5ZM2.5 16.5V19.5H0.500001L0.500001 16.5H2.5ZM2.5 10.5V13.5H0.500001L0.5 10.5H2.5ZM2.5 4.5V7.5H0.5L0.5 4.5H2.5ZM2.5 0V1.5L0.5 1.5L0.5 8.95552e-08L2.5 0Z" fill="black"/>
<g clip-path="url(#clip0)">
<path d="M8.80072 21.0851L21.0335 21.0851L35.1998 21.0851L32.5335 18.5619C32.1559 18.2045 32.1559 17.6255 32.5335 17.2681C32.9112 16.9107 33.523 16.9107 33.9007 17.2681L38.2161 21.352C38.5856 21.7007 38.6033 22.2826 38.2161 22.6481L33.9007 26.732C33.523 27.0894 32.9112 27.0894 32.5335 26.732C32.1559 26.3746 32.1559 25.7956 32.5335 25.4382L35.1998 22.915L21.0335 22.9151L8.80079 22.9151L11.4671 25.4383C11.8447 25.7956 11.8447 26.3747 11.4671 26.7321C11.0894 27.0894 10.4776 27.0894 10.0999 26.7321L5.78323 22.647C5.40559 22.2896 5.40559 21.7106 5.78323 21.3532L10.0999 17.2681C10.4775 16.9107 11.0894 16.9107 11.467 17.2681C11.8447 17.6256 11.8447 18.2045 11.467 18.5619L8.80072 21.0851Z" fill="black"/>
</g>
<defs>
<clipPath id="clip0">
<rect width="32" height="33" fill="white" transform="translate(5.5 38) rotate(-90)"/>
</clipPath>
</defs>
</svg>
