<svg width="43" height="59" viewBox="0 0 43 59" fill="none" xmlns="http://www.w3.org/2000/svg">
<line x1="1" y1="1" x2="42" y2="0.999996" stroke="black" stroke-width="2" stroke-dasharray="3 3"/>
<line x1="1" y1="41" x2="42" y2="41" stroke="black" stroke-width="2" stroke-dasharray="3 3"/>
<path d="M21.9374 30.2007V42.0627V55.7998L24.5229 53.2143C24.8891 52.8481 25.4824 52.8481 25.8486 53.2143C26.2148 53.5805 26.2148 54.1738 25.8486 54.54L21.6639 58.7247C21.3066 59.083 20.7103 59.1001 20.3359 58.7247L16.1512 54.54C15.785 54.1738 15.785 53.5805 16.1512 53.2143C16.5174 52.8481 17.1107 52.8481 17.4769 53.2143L20.0624 55.7998L20.0623 42.0627V30.2008L17.4768 32.7863C17.1106 33.1524 16.5173 33.1524 16.1511 32.7863C15.7849 32.4201 15.7849 31.8267 16.1511 31.4605L20.337 27.2746C20.7032 26.9085 21.2965 26.9085 21.6627 27.2746L25.8486 31.4605C26.2148 31.8267 26.2148 32.42 25.8486 32.7862C25.4823 33.1524 24.8891 33.1524 24.5229 32.7862L21.9374 30.2007Z" fill="black"/>
</svg>
