<svg width="44" height="59" viewBox="0 0 44 59" fill="none" xmlns="http://www.w3.org/2000/svg">
<g clip-path="url(#clip0)">
<path d="M13.5 1H1.5L1.5 13" stroke="black" stroke-width="1.5"/>
</g>
<g clip-path="url(#clip1)">
<path d="M42.5 13L42.5 1L30.5 1" stroke="black" stroke-width="1.5"/>
</g>
<g clip-path="url(#clip2)">
<path d="M13.5 42H1.5L1.5 30" stroke="black" stroke-width="1.5"/>
</g>
<g clip-path="url(#clip3)">
<path d="M42.5 30L42.5 42L30.5 42" stroke="black" stroke-width="1.5"/>
</g>
<path d="M12.9177 39.1679C12.3329 34.9349 12.2721 28.1907 16.4047 29.6667C18.1042 30.2736 18.7521 31.0015 18.9405 31.8021C19.2736 29.7098 20.0313 27.6013 21.7384 27.7621C23.8586 27.9618 24.3311 31.3688 24.4144 33.5585C24.5841 31.886 25.2888 29.6667 27.8336 29.6667C30.0453 29.6668 29.4334 35.3811 29.7381 35.3811C30.0429 35.3811 30.1283 33.4695 31.6432 32.3334C37.7384 27.762 36.5194 51.0763 33.167 54.4286C26.5042 61.0914 14.4999 57.4763 10.3098 49.0953C7.29113 43.0574 10.3095 38.4287 11.8334 38.8097C12.4543 38.9649 12.7721 39.0608 12.9177 39.1679Z" fill="white" stroke="black"/>
<path d="M32.8534 30.7647C32.0798 30.7647 31.3588 31.0001 30.7602 31.401C30.2445 29.9366 28.8459 28.8824 27.2064 28.8824C26.4327 28.8824 25.7118 29.1177 25.1132 29.5187C24.5974 28.0541 23.1988 27 21.5593 27C19.9198 27 18.5212 28.0541 18.0055 29.5186C17.4069 29.1176 16.6859 28.8823 15.9123 28.8823C13.836 28.8823 12.1475 30.5708 12.1475 32.6471V36.9633L10.3123 38.7967C9.06805 40.0428 8.38281 41.6955 8.38281 43.4555V46.3073C8.38281 48.0673 9.06796 49.7219 10.3123 50.9679L14.0788 54.7327C16.829 57.4846 20.4901 59 24.3829 59C31.1292 59 36.6182 53.5111 36.6182 46.7647V34.5294C36.6181 32.4532 34.9296 30.7647 32.8534 30.7647ZM34.7358 46.7647C34.7358 52.4739 30.0901 57.1176 24.3809 57.1176C20.9908 57.1176 17.804 55.798 15.4096 53.4018L11.643 49.6371C10.7546 48.7467 10.2651 47.5646 10.2651 46.3091V43.4574C10.2651 42.1999 10.7546 41.0178 11.643 40.1294L12.1475 39.625V41.1176C12.1475 41.6372 12.5692 42.0588 13.0887 42.0588C13.6083 42.0588 14.0299 41.6372 14.0299 41.1176V37.3548C14.0299 37.353 14.0299 37.353 14.0299 37.351V32.6471C14.0299 31.6098 14.8731 30.7647 15.9122 30.7647C16.9512 30.7647 17.7946 31.6098 17.7946 32.6471V35.4706C17.7946 35.9901 18.2163 36.4118 18.7358 36.4118C19.2553 36.4118 19.677 35.9901 19.677 35.4706V30.7647C19.677 29.7275 20.5203 28.8824 21.5593 28.8824C22.5984 28.8824 23.4417 29.7275 23.4417 30.7647V35.4706C23.4417 35.9901 23.8633 36.4118 24.3829 36.4118C24.9024 36.4118 25.3241 35.9901 25.3241 35.4706V32.6471C25.3241 31.6098 26.1673 30.7647 27.2064 30.7647C28.2454 30.7647 29.0887 31.6098 29.0887 32.6471V35.4706C29.0887 35.9901 29.5104 36.4118 30.0299 36.4118C30.5494 36.4118 30.9711 35.9901 30.9711 35.4706V34.5294C30.9711 33.4922 31.8144 32.6471 32.8534 32.6471C33.8925 32.6471 34.7358 33.4923 34.7358 34.5294V46.7647Z" fill="black"/>
<defs>
<clipPath id="clip0">
<rect width="14" height="14" fill="white" transform="translate(0.5)"/>
</clipPath>
<clipPath id="clip1">
<rect width="14" height="14" fill="white" transform="translate(43.5) rotate(90)"/>
</clipPath>
<clipPath id="clip2">
<rect width="14" height="14" fill="white" transform="matrix(1 0 0 -1 0.5 43)"/>
</clipPath>
<clipPath id="clip3">
<rect width="14" height="14" fill="white" transform="matrix(-4.37114e-08 -1 -1 4.37114e-08 43.5 43)"/>
</clipPath>
</defs>
</svg>
